%TF.GenerationSoftware,KiCad,Pcbnew,7.0.7+dfsg-1*%
%TF.CreationDate,2023-11-24T11:24:12-06:00*%
%TF.ProjectId,Power_Dist_Board,506f7765-725f-4446-9973-745f426f6172,rev?*%
%TF.SameCoordinates,Original*%
%TF.FileFunction,Soldermask,Top*%
%TF.FilePolarity,Negative*%
%FSLAX46Y46*%
G04 Gerber Fmt 4.6, Leading zero omitted, Abs format (unit mm)*
G04 Created by KiCad (PCBNEW 7.0.7+dfsg-1) date 2023-11-24 11:24:12*
%MOMM*%
%LPD*%
G01*
G04 APERTURE LIST*
G04 Aperture macros list*
%AMRoundRect*
0 Rectangle with rounded corners*
0 $1 Rounding radius*
0 $2 $3 $4 $5 $6 $7 $8 $9 X,Y pos of 4 corners*
0 Add a 4 corners polygon primitive as box body*
4,1,4,$2,$3,$4,$5,$6,$7,$8,$9,$2,$3,0*
0 Add four circle primitives for the rounded corners*
1,1,$1+$1,$2,$3*
1,1,$1+$1,$4,$5*
1,1,$1+$1,$6,$7*
1,1,$1+$1,$8,$9*
0 Add four rect primitives between the rounded corners*
20,1,$1+$1,$2,$3,$4,$5,0*
20,1,$1+$1,$4,$5,$6,$7,0*
20,1,$1+$1,$6,$7,$8,$9,0*
20,1,$1+$1,$8,$9,$2,$3,0*%
G04 Aperture macros list end*
%ADD10O,1.700000X1.700000*%
%ADD11C,3.400000*%
%ADD12O,2.400000X2.400000*%
%ADD13R,1.041400X1.193800*%
%ADD14C,2.000000*%
%ADD15RoundRect,0.250000X0.412500X0.650000X-0.412500X0.650000X-0.412500X-0.650000X0.412500X-0.650000X0*%
%ADD16RoundRect,0.250000X-0.412500X-0.650000X0.412500X-0.650000X0.412500X0.650000X-0.412500X0.650000X0*%
%ADD17R,2.350000X3.400001*%
%ADD18RoundRect,0.250001X0.624999X-0.462499X0.624999X0.462499X-0.624999X0.462499X-0.624999X-0.462499X0*%
%ADD19RoundRect,0.250000X-0.625000X0.400000X-0.625000X-0.400000X0.625000X-0.400000X0.625000X0.400000X0*%
%ADD20RoundRect,0.250001X-0.462499X-0.624999X0.462499X-0.624999X0.462499X0.624999X-0.462499X0.624999X0*%
%ADD21RoundRect,0.143300X-0.683700X-0.253700X0.683700X-0.253700X0.683700X0.253700X-0.683700X0.253700X0*%
%ADD22RoundRect,0.250000X0.625000X-0.400000X0.625000X0.400000X-0.625000X0.400000X-0.625000X-0.400000X0*%
%ADD23RoundRect,0.250001X-0.624999X0.462499X-0.624999X-0.462499X0.624999X-0.462499X0.624999X0.462499X0*%
G04 APERTURE END LIST*
D10*
%TO.C,J5*%
X217920000Y-41080000D03*
X215380000Y-41080000D03*
X212840000Y-41080000D03*
X210300000Y-41080000D03*
X207760000Y-41080000D03*
X205220000Y-41080000D03*
X202680000Y-41080000D03*
X200140000Y-41080000D03*
X197600000Y-41080000D03*
X195060000Y-41080000D03*
X192520000Y-41080000D03*
X189980000Y-41080000D03*
X187440000Y-41080000D03*
X184900000Y-41080000D03*
X182360000Y-41080000D03*
X179820000Y-41080000D03*
X177280000Y-41080000D03*
X174740000Y-41080000D03*
X172200000Y-41080000D03*
X169660000Y-41080000D03*
X167120000Y-41080000D03*
X164580000Y-41080000D03*
X162040000Y-41080000D03*
X159500000Y-41080000D03*
X156960000Y-41080000D03*
X154420000Y-41080000D03*
X151880000Y-41080000D03*
X149340000Y-41080000D03*
X146800000Y-41080000D03*
X144260000Y-41080000D03*
X141720000Y-41080000D03*
X139180000Y-41080000D03*
X136640000Y-41080000D03*
X134100000Y-41080000D03*
X131560000Y-41080000D03*
X129020000Y-41080000D03*
X126480000Y-41080000D03*
X123940000Y-41080000D03*
X121400000Y-41080000D03*
%TD*%
%TO.C,J7*%
X217920000Y-35080000D03*
X215380000Y-35080000D03*
X212840000Y-35080000D03*
X210300000Y-35080000D03*
X207760000Y-35080000D03*
X205220000Y-35080000D03*
X202680000Y-35080000D03*
X200140000Y-35080000D03*
X197600000Y-35080000D03*
X195060000Y-35080000D03*
X192520000Y-35080000D03*
X189980000Y-35080000D03*
X187440000Y-35080000D03*
X184900000Y-35080000D03*
X182360000Y-35080000D03*
X179820000Y-35080000D03*
X177280000Y-35080000D03*
X174740000Y-35080000D03*
X172200000Y-35080000D03*
X169660000Y-35080000D03*
X167120000Y-35080000D03*
X164580000Y-35080000D03*
X162040000Y-35080000D03*
X159500000Y-35080000D03*
X156960000Y-35080000D03*
X154420000Y-35080000D03*
X151880000Y-35080000D03*
X149340000Y-35080000D03*
X146800000Y-35080000D03*
X144260000Y-35080000D03*
X141720000Y-35080000D03*
X139180000Y-35080000D03*
X136640000Y-35080000D03*
X134100000Y-35080000D03*
X131560000Y-35080000D03*
X129020000Y-35080000D03*
X126480000Y-35080000D03*
X123940000Y-35080000D03*
X121400000Y-35080000D03*
%TD*%
%TO.C,J6*%
X209210000Y-94385000D03*
X206670000Y-94385000D03*
X204130000Y-94385000D03*
X201590000Y-94385000D03*
X199050000Y-94385000D03*
X196510000Y-94385000D03*
X193970000Y-94385000D03*
X191430000Y-94385000D03*
X188890000Y-94385000D03*
X186350000Y-94385000D03*
X183810000Y-94385000D03*
X181270000Y-94385000D03*
X178730000Y-94385000D03*
X176190000Y-94385000D03*
X173650000Y-94385000D03*
X171110000Y-94385000D03*
X168570000Y-94385000D03*
X166030000Y-94385000D03*
X163490000Y-94385000D03*
X160950000Y-94385000D03*
X158410000Y-94385000D03*
X155870000Y-94385000D03*
X153330000Y-94385000D03*
X150790000Y-94385000D03*
X148250000Y-94385000D03*
X145710000Y-94385000D03*
X143170000Y-94385000D03*
X140630000Y-94385000D03*
X138090000Y-94385000D03*
X135550000Y-94385000D03*
X133010000Y-94385000D03*
X130470000Y-94385000D03*
X127930000Y-94385000D03*
X125390000Y-94385000D03*
X122850000Y-94385000D03*
X120310000Y-94385000D03*
X117770000Y-94385000D03*
X115230000Y-94385000D03*
X112690000Y-94385000D03*
%TD*%
%TO.C,J3*%
X217920000Y-29080000D03*
X215380000Y-29080000D03*
X212840000Y-29080000D03*
X210300000Y-29080000D03*
X207760000Y-29080000D03*
X205220000Y-29080000D03*
X202680000Y-29080000D03*
X200140000Y-29080000D03*
X197600000Y-29080000D03*
X195060000Y-29080000D03*
X192520000Y-29080000D03*
X189980000Y-29080000D03*
X187440000Y-29080000D03*
X184900000Y-29080000D03*
X182360000Y-29080000D03*
X179820000Y-29080000D03*
X177280000Y-29080000D03*
X174740000Y-29080000D03*
X172200000Y-29080000D03*
X169660000Y-29080000D03*
X167120000Y-29080000D03*
X164580000Y-29080000D03*
X162040000Y-29080000D03*
X159500000Y-29080000D03*
X156960000Y-29080000D03*
X154420000Y-29080000D03*
X151880000Y-29080000D03*
X149340000Y-29080000D03*
X146800000Y-29080000D03*
X144260000Y-29080000D03*
X141720000Y-29080000D03*
X139180000Y-29080000D03*
X136640000Y-29080000D03*
X134100000Y-29080000D03*
X131560000Y-29080000D03*
X129020000Y-29080000D03*
X126480000Y-29080000D03*
X123940000Y-29080000D03*
X121400000Y-29080000D03*
%TD*%
%TO.C,J4*%
X209210000Y-88385000D03*
X206670000Y-88385000D03*
X204130000Y-88385000D03*
X201590000Y-88385000D03*
X199050000Y-88385000D03*
X196510000Y-88385000D03*
X193970000Y-88385000D03*
X191430000Y-88385000D03*
X188890000Y-88385000D03*
X186350000Y-88385000D03*
X183810000Y-88385000D03*
X181270000Y-88385000D03*
X178730000Y-88385000D03*
X176190000Y-88385000D03*
X173650000Y-88385000D03*
X171110000Y-88385000D03*
X168570000Y-88385000D03*
X166030000Y-88385000D03*
X163490000Y-88385000D03*
X160950000Y-88385000D03*
X158410000Y-88385000D03*
X155870000Y-88385000D03*
X153330000Y-88385000D03*
X150790000Y-88385000D03*
X148250000Y-88385000D03*
X145710000Y-88385000D03*
X143170000Y-88385000D03*
X140630000Y-88385000D03*
X138090000Y-88385000D03*
X135550000Y-88385000D03*
X133010000Y-88385000D03*
X130470000Y-88385000D03*
X127930000Y-88385000D03*
X125390000Y-88385000D03*
X122850000Y-88385000D03*
X120310000Y-88385000D03*
X117770000Y-88385000D03*
X115230000Y-88385000D03*
X112690000Y-88385000D03*
%TD*%
%TO.C,J2*%
X209210000Y-100385000D03*
X206670000Y-100385000D03*
X204130000Y-100385000D03*
X201590000Y-100385000D03*
X199050000Y-100385000D03*
X196510000Y-100385000D03*
X193970000Y-100385000D03*
X191430000Y-100385000D03*
X188890000Y-100385000D03*
X186350000Y-100385000D03*
X183810000Y-100385000D03*
X181270000Y-100385000D03*
X178730000Y-100385000D03*
X176190000Y-100385000D03*
X173650000Y-100385000D03*
X171110000Y-100385000D03*
X168570000Y-100385000D03*
X166030000Y-100385000D03*
X163490000Y-100385000D03*
X160950000Y-100385000D03*
X158410000Y-100385000D03*
X155870000Y-100385000D03*
X153330000Y-100385000D03*
X150790000Y-100385000D03*
X148250000Y-100385000D03*
X145710000Y-100385000D03*
X143170000Y-100385000D03*
X140630000Y-100385000D03*
X138090000Y-100385000D03*
X135550000Y-100385000D03*
X133010000Y-100385000D03*
X130470000Y-100385000D03*
X127930000Y-100385000D03*
X125390000Y-100385000D03*
X122850000Y-100385000D03*
X120310000Y-100385000D03*
X117770000Y-100385000D03*
X115230000Y-100385000D03*
X112690000Y-100385000D03*
%TD*%
D11*
%TO.C,REF\u002A\u002A*%
X228000000Y-100000000D03*
%TD*%
D12*
%TO.C,J9*%
X206460000Y-55250000D03*
X211540000Y-55250000D03*
%TD*%
D13*
%TO.C,D12*%
X216000000Y-82024000D03*
X216000000Y-78976000D03*
%TD*%
D14*
%TO.C,M3*%
X94781300Y-90608400D03*
X94781300Y-93148400D03*
%TD*%
D13*
%TO.C,D5*%
X216000000Y-51694250D03*
X216000000Y-48646250D03*
%TD*%
D15*
%TO.C,C8*%
X136562500Y-71750000D03*
X133437500Y-71750000D03*
%TD*%
D12*
%TO.C,J8*%
X164960000Y-23750000D03*
X170040000Y-23750000D03*
%TD*%
D14*
%TO.C,M7*%
X225000000Y-61726450D03*
X225000000Y-59186450D03*
%TD*%
%TO.C,M2*%
X94579300Y-61546500D03*
X94579300Y-59006500D03*
%TD*%
D16*
%TO.C,C3*%
X171750000Y-57750000D03*
X174875000Y-57750000D03*
%TD*%
D11*
%TO.C,REF\u002A\u002A*%
X92000000Y-100000000D03*
%TD*%
D17*
%TO.C,L1*%
X170550000Y-63049999D03*
X176550000Y-63049999D03*
%TD*%
D13*
%TO.C,D4*%
X103047300Y-51946400D03*
X103047300Y-48898400D03*
%TD*%
D14*
%TO.C,M8*%
X225072900Y-72000000D03*
X225072900Y-69460000D03*
%TD*%
D13*
%TO.C,D13*%
X103281300Y-82422400D03*
X103281300Y-79374400D03*
%TD*%
%TO.C,D9*%
X103281300Y-90374400D03*
X103281300Y-93422400D03*
%TD*%
D14*
%TO.C,M9*%
X225055700Y-81475100D03*
X225055700Y-78935100D03*
%TD*%
D15*
%TO.C,C4*%
X185625000Y-67500000D03*
X182500000Y-67500000D03*
%TD*%
D18*
%TO.C,D3*%
X103346875Y-37487500D03*
X103346875Y-34512500D03*
%TD*%
D19*
%TO.C,R1*%
X171000000Y-67950000D03*
X171000000Y-71050000D03*
%TD*%
D15*
%TO.C,C9*%
X185625000Y-76500000D03*
X182500000Y-76500000D03*
%TD*%
D17*
%TO.C,L2*%
X121800000Y-63049999D03*
X127800000Y-63049999D03*
%TD*%
D11*
%TO.C,REF\u002A\u002A*%
X228000000Y-24000000D03*
%TD*%
D16*
%TO.C,C1*%
X171750000Y-53500000D03*
X174875000Y-53500000D03*
%TD*%
%TO.C,C12*%
X139187500Y-59750000D03*
X142312500Y-59750000D03*
%TD*%
D20*
%TO.C,F2*%
X113014500Y-62738000D03*
X115989500Y-62738000D03*
%TD*%
D21*
%TO.C,U1*%
X184707500Y-62353750D03*
X184707500Y-63303750D03*
X184707500Y-64253750D03*
X187017500Y-64253750D03*
X187017500Y-63303750D03*
X187017500Y-62353750D03*
%TD*%
D14*
%TO.C,J1*%
X97500000Y-27710000D03*
X97500000Y-30250000D03*
%TD*%
D13*
%TO.C,D7*%
X103047300Y-61820500D03*
X103047300Y-58772500D03*
%TD*%
D19*
%TO.C,R5*%
X194062500Y-60700000D03*
X194062500Y-63800000D03*
%TD*%
D22*
%TO.C,R7*%
X200062500Y-63800000D03*
X200062500Y-60700000D03*
%TD*%
D14*
%TO.C,M6*%
X225000000Y-92290000D03*
X225000000Y-89750000D03*
%TD*%
D16*
%TO.C,C5*%
X122937500Y-57750000D03*
X126062500Y-57750000D03*
%TD*%
D12*
%TO.C,J10*%
X113420000Y-82751829D03*
X118500000Y-82751829D03*
%TD*%
D21*
%TO.C,U2*%
X135845000Y-62300000D03*
X135845000Y-63250000D03*
X135845000Y-64200000D03*
X138155000Y-64200000D03*
X138155000Y-63250000D03*
X138155000Y-62300000D03*
%TD*%
D20*
%TO.C,F1*%
X161012500Y-63000000D03*
X163987500Y-63000000D03*
%TD*%
D14*
%TO.C,M1*%
X94547300Y-51672400D03*
X94547300Y-49132400D03*
%TD*%
D11*
%TO.C,REF\u002A\u002A*%
X92000000Y-24000000D03*
%TD*%
D14*
%TO.C,M5*%
X225000000Y-51460250D03*
X225000000Y-48920250D03*
%TD*%
D19*
%TO.C,R2*%
X122500000Y-71250000D03*
X122500000Y-68150000D03*
%TD*%
%TO.C,R4*%
X145500000Y-60600000D03*
X145500000Y-63700000D03*
%TD*%
D13*
%TO.C,D8*%
X216000000Y-72234000D03*
X216000000Y-69186000D03*
%TD*%
D15*
%TO.C,C6*%
X136562500Y-67750000D03*
X133437500Y-67750000D03*
%TD*%
D13*
%TO.C,D6*%
X216500000Y-92524000D03*
X216500000Y-89476000D03*
%TD*%
D19*
%TO.C,R9*%
X148500000Y-66200000D03*
X148500000Y-69300000D03*
%TD*%
D23*
%TO.C,D1*%
X167000000Y-68012500D03*
X167000000Y-70987500D03*
%TD*%
D14*
%TO.C,SW1*%
X94581250Y-38710000D03*
X94581250Y-41250000D03*
%TD*%
D19*
%TO.C,R3*%
X103296875Y-27650000D03*
X103296875Y-30750000D03*
%TD*%
D13*
%TO.C,D10*%
X103047300Y-72460900D03*
X103047300Y-69412900D03*
%TD*%
D15*
%TO.C,C7*%
X185687500Y-72000000D03*
X182562500Y-72000000D03*
%TD*%
D14*
%TO.C,M10*%
X94781300Y-82148400D03*
X94781300Y-79608400D03*
%TD*%
D15*
%TO.C,C10*%
X136562500Y-76250000D03*
X133437500Y-76250000D03*
%TD*%
D23*
%TO.C,F3*%
X109346875Y-32312500D03*
X109346875Y-35287500D03*
%TD*%
%TO.C,D2*%
X118500000Y-71187500D03*
X118500000Y-68212500D03*
%TD*%
D16*
%TO.C,C11*%
X188000000Y-60000000D03*
X191125000Y-60000000D03*
%TD*%
%TO.C,C2*%
X122937500Y-53500000D03*
X126062500Y-53500000D03*
%TD*%
D22*
%TO.C,R6*%
X151000000Y-63700000D03*
X151000000Y-60600000D03*
%TD*%
D14*
%TO.C,M4*%
X94563300Y-72186900D03*
X94563300Y-69646900D03*
%TD*%
D13*
%TO.C,D11*%
X216000000Y-62068850D03*
X216000000Y-59020850D03*
%TD*%
D19*
%TO.C,R8*%
X197062500Y-65950000D03*
X197062500Y-69050000D03*
%TD*%
M02*
