%TF.GenerationSoftware,KiCad,Pcbnew,7.0.7+dfsg-1*%
%TF.CreationDate,2023-11-24T11:24:12-06:00*%
%TF.ProjectId,Power_Dist_Board,506f7765-725f-4446-9973-745f426f6172,rev?*%
%TF.SameCoordinates,Original*%
%TF.FileFunction,Paste,Top*%
%TF.FilePolarity,Positive*%
%FSLAX46Y46*%
G04 Gerber Fmt 4.6, Leading zero omitted, Abs format (unit mm)*
G04 Created by KiCad (PCBNEW 7.0.7+dfsg-1) date 2023-11-24 11:24:12*
%MOMM*%
%LPD*%
G01*
G04 APERTURE LIST*
G04 Aperture macros list*
%AMRoundRect*
0 Rectangle with rounded corners*
0 $1 Rounding radius*
0 $2 $3 $4 $5 $6 $7 $8 $9 X,Y pos of 4 corners*
0 Add a 4 corners polygon primitive as box body*
4,1,4,$2,$3,$4,$5,$6,$7,$8,$9,$2,$3,0*
0 Add four circle primitives for the rounded corners*
1,1,$1+$1,$2,$3*
1,1,$1+$1,$4,$5*
1,1,$1+$1,$6,$7*
1,1,$1+$1,$8,$9*
0 Add four rect primitives between the rounded corners*
20,1,$1+$1,$2,$3,$4,$5,0*
20,1,$1+$1,$4,$5,$6,$7,0*
20,1,$1+$1,$6,$7,$8,$9,0*
20,1,$1+$1,$8,$9,$2,$3,0*%
G04 Aperture macros list end*
%ADD10R,1.041400X1.193800*%
%ADD11RoundRect,0.250000X0.412500X0.650000X-0.412500X0.650000X-0.412500X-0.650000X0.412500X-0.650000X0*%
%ADD12RoundRect,0.250000X-0.412500X-0.650000X0.412500X-0.650000X0.412500X0.650000X-0.412500X0.650000X0*%
%ADD13R,2.350000X3.400001*%
%ADD14RoundRect,0.250001X0.624999X-0.462499X0.624999X0.462499X-0.624999X0.462499X-0.624999X-0.462499X0*%
%ADD15RoundRect,0.250000X-0.625000X0.400000X-0.625000X-0.400000X0.625000X-0.400000X0.625000X0.400000X0*%
%ADD16RoundRect,0.250001X-0.462499X-0.624999X0.462499X-0.624999X0.462499X0.624999X-0.462499X0.624999X0*%
%ADD17RoundRect,0.041300X-0.683700X-0.253700X0.683700X-0.253700X0.683700X0.253700X-0.683700X0.253700X0*%
%ADD18RoundRect,0.250000X0.625000X-0.400000X0.625000X0.400000X-0.625000X0.400000X-0.625000X-0.400000X0*%
%ADD19RoundRect,0.250001X-0.624999X0.462499X-0.624999X-0.462499X0.624999X-0.462499X0.624999X0.462499X0*%
G04 APERTURE END LIST*
D10*
%TO.C,D12*%
X216000000Y-82024000D03*
X216000000Y-78976000D03*
%TD*%
%TO.C,D5*%
X216000000Y-51694250D03*
X216000000Y-48646250D03*
%TD*%
D11*
%TO.C,C8*%
X136562500Y-71750000D03*
X133437500Y-71750000D03*
%TD*%
D12*
%TO.C,C3*%
X171750000Y-57750000D03*
X174875000Y-57750000D03*
%TD*%
D13*
%TO.C,L1*%
X170550000Y-63049999D03*
X176550000Y-63049999D03*
%TD*%
D10*
%TO.C,D4*%
X103047300Y-51946400D03*
X103047300Y-48898400D03*
%TD*%
%TO.C,D13*%
X103281300Y-82422400D03*
X103281300Y-79374400D03*
%TD*%
%TO.C,D9*%
X103281300Y-90374400D03*
X103281300Y-93422400D03*
%TD*%
D11*
%TO.C,C4*%
X185625000Y-67500000D03*
X182500000Y-67500000D03*
%TD*%
D14*
%TO.C,D3*%
X103346875Y-37487500D03*
X103346875Y-34512500D03*
%TD*%
D15*
%TO.C,R1*%
X171000000Y-67950000D03*
X171000000Y-71050000D03*
%TD*%
D11*
%TO.C,C9*%
X185625000Y-76500000D03*
X182500000Y-76500000D03*
%TD*%
D13*
%TO.C,L2*%
X121800000Y-63049999D03*
X127800000Y-63049999D03*
%TD*%
D12*
%TO.C,C1*%
X171750000Y-53500000D03*
X174875000Y-53500000D03*
%TD*%
%TO.C,C12*%
X139187500Y-59750000D03*
X142312500Y-59750000D03*
%TD*%
D16*
%TO.C,F2*%
X113014500Y-62738000D03*
X115989500Y-62738000D03*
%TD*%
D17*
%TO.C,U1*%
X184707500Y-62353750D03*
X184707500Y-63303750D03*
X184707500Y-64253750D03*
X187017500Y-64253750D03*
X187017500Y-63303750D03*
X187017500Y-62353750D03*
%TD*%
D10*
%TO.C,D7*%
X103047300Y-61820500D03*
X103047300Y-58772500D03*
%TD*%
D15*
%TO.C,R5*%
X194062500Y-60700000D03*
X194062500Y-63800000D03*
%TD*%
D18*
%TO.C,R7*%
X200062500Y-63800000D03*
X200062500Y-60700000D03*
%TD*%
D12*
%TO.C,C5*%
X122937500Y-57750000D03*
X126062500Y-57750000D03*
%TD*%
D17*
%TO.C,U2*%
X135845000Y-62300000D03*
X135845000Y-63250000D03*
X135845000Y-64200000D03*
X138155000Y-64200000D03*
X138155000Y-63250000D03*
X138155000Y-62300000D03*
%TD*%
D16*
%TO.C,F1*%
X161012500Y-63000000D03*
X163987500Y-63000000D03*
%TD*%
D15*
%TO.C,R2*%
X122500000Y-71250000D03*
X122500000Y-68150000D03*
%TD*%
%TO.C,R4*%
X145500000Y-60600000D03*
X145500000Y-63700000D03*
%TD*%
D10*
%TO.C,D8*%
X216000000Y-72234000D03*
X216000000Y-69186000D03*
%TD*%
D11*
%TO.C,C6*%
X136562500Y-67750000D03*
X133437500Y-67750000D03*
%TD*%
D10*
%TO.C,D6*%
X216500000Y-92524000D03*
X216500000Y-89476000D03*
%TD*%
D15*
%TO.C,R9*%
X148500000Y-66200000D03*
X148500000Y-69300000D03*
%TD*%
D19*
%TO.C,D1*%
X167000000Y-68012500D03*
X167000000Y-70987500D03*
%TD*%
D15*
%TO.C,R3*%
X103296875Y-27650000D03*
X103296875Y-30750000D03*
%TD*%
D10*
%TO.C,D10*%
X103047300Y-72460900D03*
X103047300Y-69412900D03*
%TD*%
D11*
%TO.C,C7*%
X185687500Y-72000000D03*
X182562500Y-72000000D03*
%TD*%
%TO.C,C10*%
X136562500Y-76250000D03*
X133437500Y-76250000D03*
%TD*%
D19*
%TO.C,F3*%
X109346875Y-32312500D03*
X109346875Y-35287500D03*
%TD*%
%TO.C,D2*%
X118500000Y-71187500D03*
X118500000Y-68212500D03*
%TD*%
D12*
%TO.C,C11*%
X188000000Y-60000000D03*
X191125000Y-60000000D03*
%TD*%
%TO.C,C2*%
X122937500Y-53500000D03*
X126062500Y-53500000D03*
%TD*%
D18*
%TO.C,R6*%
X151000000Y-63700000D03*
X151000000Y-60600000D03*
%TD*%
D10*
%TO.C,D11*%
X216000000Y-62068850D03*
X216000000Y-59020850D03*
%TD*%
D15*
%TO.C,R8*%
X197062500Y-65950000D03*
X197062500Y-69050000D03*
%TD*%
M02*
