M48
INCH
T1C0.0157
T2C0.0394
T3C0.0433
T4C0.0472
%
G90
G05
T1
X4.0071Y-2.1614
X4.0071Y-2.528
X4.0071Y-2.9528
X4.0268Y-3.3425
X4.0268Y-3.7755
X4.1929Y-1.2992
X5.0197Y-2.628
X5.0886Y-2.1063
X5.0886Y-2.2835
X5.0886Y-2.6969
X5.1969Y-2.7461
X5.2362Y-2.4582
X5.2461Y-2.1063
X5.2461Y-2.2835
X5.4823Y-2.2121
X5.4921Y-2.6378
X5.4921Y-2.7165
X5.4921Y-2.8937
X5.4921Y-2.9921
X5.6102Y-2.4902
X5.6102Y-2.6378
X5.6102Y-2.7165
X5.6102Y-2.8937
X5.6102Y-2.9921
X5.7677Y-2.5886
X5.8465Y-2.7953
X6.3386Y-2.185
X6.3386Y-2.7953
X6.3976Y-2.1161
X6.3976Y-2.8543
X6.4567Y-2.185
X6.4567Y-2.7953
X7.0276Y-2.1063
X7.0276Y-2.2835
X7.1088Y-2.7362
X7.158Y-2.4606
X7.185Y-2.1063
X7.185Y-2.2835
X7.404Y-2.2146
X7.4213Y-2.6575
X7.4213Y-2.8543
X7.4213Y-2.9724
X7.5394Y-2.6575
X7.5394Y-2.8543
X7.5394Y-2.9724
X7.5418Y-2.4803
X7.6796Y-2.5787
X7.7584Y-2.7756
X8.563Y-2.2146
X8.563Y-2.6224
X8.563Y-3.0118
X8.5827Y-1.7913
X8.7402Y-3.4252
T2
X4.4366Y-3.4797
X4.4366Y-3.7159
X4.4366Y-3.9522
X4.5366Y-3.4797
X4.5366Y-3.7159
X4.5366Y-3.9522
X4.6366Y-3.4797
X4.6366Y-3.7159
X4.6366Y-3.9522
X4.7366Y-3.4797
X4.7366Y-3.7159
X4.7366Y-3.9522
X4.7795Y-1.1449
X4.7795Y-1.3811
X4.7795Y-1.6173
X4.8366Y-3.4797
X4.8366Y-3.7159
X4.8366Y-3.9522
X4.8795Y-1.1449
X4.8795Y-1.3811
X4.8795Y-1.6173
X4.9366Y-3.4797
X4.9366Y-3.7159
X4.9366Y-3.9522
X4.9795Y-1.1449
X4.9795Y-1.3811
X4.9795Y-1.6173
X5.0366Y-3.4797
X5.0366Y-3.7159
X5.0366Y-3.9522
X5.0795Y-1.1449
X5.0795Y-1.3811
X5.0795Y-1.6173
X5.1366Y-3.4797
X5.1366Y-3.7159
X5.1366Y-3.9522
X5.1795Y-1.1449
X5.1795Y-1.3811
X5.1795Y-1.6173
X5.2366Y-3.4797
X5.2366Y-3.7159
X5.2366Y-3.9522
X5.2795Y-1.1449
X5.2795Y-1.3811
X5.2795Y-1.6173
X5.3366Y-3.4797
X5.3366Y-3.7159
X5.3366Y-3.9522
X5.3795Y-1.1449
X5.3795Y-1.3811
X5.3795Y-1.6173
X5.4366Y-3.4797
X5.4366Y-3.7159
X5.4366Y-3.9522
X5.4795Y-1.1449
X5.4795Y-1.3811
X5.4795Y-1.6173
X5.5366Y-3.4797
X5.5366Y-3.7159
X5.5366Y-3.9522
X5.5795Y-1.1449
X5.5795Y-1.3811
X5.5795Y-1.6173
X5.6366Y-3.4797
X5.6366Y-3.7159
X5.6366Y-3.9522
X5.6795Y-1.1449
X5.6795Y-1.3811
X5.6795Y-1.6173
X5.7366Y-3.4797
X5.7366Y-3.7159
X5.7366Y-3.9522
X5.7795Y-1.1449
X5.7795Y-1.3811
X5.7795Y-1.6173
X5.8366Y-3.4797
X5.8366Y-3.7159
X5.8366Y-3.9522
X5.8795Y-1.1449
X5.8795Y-1.3811
X5.8795Y-1.6173
X5.9366Y-3.4797
X5.9366Y-3.7159
X5.9366Y-3.9522
X5.9795Y-1.1449
X5.9795Y-1.3811
X5.9795Y-1.6173
X6.0366Y-3.4797
X6.0366Y-3.7159
X6.0366Y-3.9522
X6.0795Y-1.1449
X6.0795Y-1.3811
X6.0795Y-1.6173
X6.1366Y-3.4797
X6.1366Y-3.7159
X6.1366Y-3.9522
X6.1795Y-1.1449
X6.1795Y-1.3811
X6.1795Y-1.6173
X6.2366Y-3.4797
X6.2366Y-3.7159
X6.2366Y-3.9522
X6.2795Y-1.1449
X6.2795Y-1.3811
X6.2795Y-1.6173
X6.3366Y-3.4797
X6.3366Y-3.7159
X6.3366Y-3.9522
X6.3795Y-1.1449
X6.3795Y-1.3811
X6.3795Y-1.6173
X6.4366Y-3.4797
X6.4366Y-3.7159
X6.4366Y-3.9522
X6.4795Y-1.1449
X6.4795Y-1.3811
X6.4795Y-1.6173
X6.5366Y-3.4797
X6.5366Y-3.7159
X6.5366Y-3.9522
X6.5795Y-1.1449
X6.5795Y-1.3811
X6.5795Y-1.6173
X6.6366Y-3.4797
X6.6366Y-3.7159
X6.6366Y-3.9522
X6.6795Y-1.1449
X6.6795Y-1.3811
X6.6795Y-1.6173
X6.7366Y-3.4797
X6.7366Y-3.7159
X6.7366Y-3.9522
X6.7795Y-1.1449
X6.7795Y-1.3811
X6.7795Y-1.6173
X6.8366Y-3.4797
X6.8366Y-3.7159
X6.8366Y-3.9522
X6.8795Y-1.1449
X6.8795Y-1.3811
X6.8795Y-1.6173
X6.9366Y-3.4797
X6.9366Y-3.7159
X6.9366Y-3.9522
X6.9795Y-1.1449
X6.9795Y-1.3811
X6.9795Y-1.6173
X7.0366Y-3.4797
X7.0366Y-3.7159
X7.0366Y-3.9522
X7.0795Y-1.1449
X7.0795Y-1.3811
X7.0795Y-1.6173
X7.1366Y-3.4797
X7.1366Y-3.7159
X7.1366Y-3.9522
X7.1795Y-1.1449
X7.1795Y-1.3811
X7.1795Y-1.6173
X7.2366Y-3.4797
X7.2366Y-3.7159
X7.2366Y-3.9522
X7.2795Y-1.1449
X7.2795Y-1.3811
X7.2795Y-1.6173
X7.3366Y-3.4797
X7.3366Y-3.7159
X7.3366Y-3.9522
X7.3795Y-1.1449
X7.3795Y-1.3811
X7.3795Y-1.6173
X7.4366Y-3.4797
X7.4366Y-3.7159
X7.4366Y-3.9522
X7.4795Y-1.1449
X7.4795Y-1.3811
X7.4795Y-1.6173
X7.5366Y-3.4797
X7.5366Y-3.7159
X7.5366Y-3.9522
X7.5795Y-1.1449
X7.5795Y-1.3811
X7.5795Y-1.6173
X7.6366Y-3.4797
X7.6366Y-3.7159
X7.6366Y-3.9522
X7.6795Y-1.1449
X7.6795Y-1.3811
X7.6795Y-1.6173
X7.7366Y-3.4797
X7.7366Y-3.7159
X7.7366Y-3.9522
X7.7795Y-1.1449
X7.7795Y-1.3811
X7.7795Y-1.6173
X7.8366Y-3.4797
X7.8366Y-3.7159
X7.8366Y-3.9522
X7.8795Y-1.1449
X7.8795Y-1.3811
X7.8795Y-1.6173
X7.9366Y-3.4797
X7.9366Y-3.7159
X7.9366Y-3.9522
X7.9795Y-1.1449
X7.9795Y-1.3811
X7.9795Y-1.6173
X8.0366Y-3.4797
X8.0366Y-3.7159
X8.0366Y-3.9522
X8.0795Y-1.1449
X8.0795Y-1.3811
X8.0795Y-1.6173
X8.1366Y-3.4797
X8.1366Y-3.7159
X8.1366Y-3.9522
X8.1795Y-1.1449
X8.1795Y-1.3811
X8.1795Y-1.6173
X8.2366Y-3.4797
X8.2366Y-3.7159
X8.2366Y-3.9522
X8.2795Y-1.1449
X8.2795Y-1.3811
X8.2795Y-1.6173
X8.3795Y-1.1449
X8.3795Y-1.3811
X8.3795Y-1.6173
X8.4795Y-1.1449
X8.4795Y-1.3811
X8.4795Y-1.6173
X8.5795Y-1.1449
X8.5795Y-1.3811
X8.5795Y-1.6173
T3
X3.7223Y-1.9343
X3.7223Y-2.0343
X3.723Y-2.742
X3.723Y-2.842
X3.7236Y-2.3231
X3.7236Y-2.4231
X3.7237Y-1.524
X3.7237Y-1.624
X3.7315Y-3.1342
X3.7315Y-3.2342
X3.7315Y-3.5673
X3.7315Y-3.6673
X3.8386Y-1.0909
X3.8386Y-1.1909
X8.8583Y-1.926
X8.8583Y-2.026
X8.8583Y-2.3302
X8.8583Y-2.4302
X8.8583Y-3.5335
X8.8583Y-3.6335
X8.8605Y-3.1077
X8.8605Y-3.2077
X8.8611Y-2.7346
X8.8611Y-2.8346
T4
X4.4654Y-3.2579
X4.6654Y-3.2579
X6.4945Y-0.935
X6.6945Y-0.935
X8.1283Y-2.1752
X8.3283Y-2.1752
T0
M30
